<svg width="47" height="41" viewBox="0 0 47 41" fill="none" xmlns="http://www.w3.org/2000/svg">
<path fill-rule="evenodd" clip-rule="evenodd" d="M46.9354 10.5447C46.9346 10.6322 46.9224 10.7178 46.8999 10.7999V31C46.8999 31.3744 46.6907 31.7174 46.3579 31.8889L29.8753 40.3799C29.7339 40.4565 29.572 40.5 29.3999 40.5L29.3768 40.4997C29.3641 40.4994 29.3514 40.4989 29.3387 40.4981C29.1935 40.4893 29.0567 40.4496 28.9348 40.3854L11.9527 31.8944C11.6139 31.725 11.3999 31.3787 11.3999 31V30.5C11.3999 29.9477 11.8476 29.5 12.3999 29.5C12.911 29.5 13.3325 29.8834 13.3926 30.3783L28.3999 37.8819V19.5757L13.3999 11.6585V15C13.3999 15.5522 12.9522 16 12.3999 16C11.8476 16 11.3999 15.5522 11.3999 15V10.5C11.3999 10.4135 11.4109 10.3296 11.4315 10.2495C11.41 10.1661 11.3991 10.0792 11.3999 9.9907C11.4034 9.61653 11.6155 9.27561 11.9496 9.10709L28.5791 0.719448C28.8682 0.573652 29.2099 0.576814 29.4962 0.727933L46.2066 9.54785C46.3674 9.5996 46.5104 9.69096 46.6242 9.81044C46.8224 9.99872 46.938 10.2634 46.9354 10.5447ZM30.3999 19.4913V37.8599L44.8999 30.3902V12.1778L40.8999 14.1953V18C40.8999 18.3631 40.703 18.6977 40.3855 18.8741L35.8855 21.3741C35.5758 21.5462 35.1982 21.5415 34.8928 21.3618C34.5874 21.1821 34.3999 20.8543 34.3999 20.5V17.4738L30.3999 19.4913ZM36.3999 16.4651L38.8999 15.2041V17.4115L36.3999 18.8004V16.4651ZM23.1724 5.68648L21.3035 6.62915L35.7513 14.5522L37.568 13.6359L23.4191 5.87676C23.3249 5.82513 23.2424 5.76056 23.1724 5.68648ZM25.2868 4.62002L29.019 2.73756L43.7549 10.5153L39.7347 12.543L25.2868 4.62002ZM19.4191 7.87676C19.33 7.8279 19.2512 7.76744 19.1838 7.69829L14.5804 10.0201L29.3163 17.7979L33.5847 15.645L19.4191 7.87676ZM5.3999 18C4.84762 18 4.3999 18.4477 4.3999 19C4.3999 19.5522 4.84762 20 5.3999 20H19.3999C19.9522 20 20.3999 19.5522 20.3999 19C20.3999 18.4477 19.9522 18 19.3999 18H5.3999ZM2.3999 23C2.3999 22.4477 2.84762 22 3.3999 22H17.3999C17.9522 22 18.3999 22.4477 18.3999 23C18.3999 23.5522 17.9522 24 17.3999 24H3.3999C2.84762 24 2.3999 23.5522 2.3999 23ZM1.3999 26C0.847618 26 0.399902 26.4477 0.399902 27C0.399902 27.5522 0.847618 28 1.3999 28H15.3999C15.9522 28 16.3999 27.5522 16.3999 27C16.3999 26.4477 15.9522 26 15.3999 26H1.3999Z" fill="#5820F6"/>
</svg>
