<svg width="44" height="43" viewBox="0 0 44 43" fill="none" xmlns="http://www.w3.org/2000/svg">
<path fill-rule="evenodd" clip-rule="evenodd" d="M22.1 2.5C18.6903 2.5 15.5464 3.63765 13.027 5.55406L13.9258 6.6538C14.2626 7.06592 14.9822 7.19938 15.6245 6.80909C17.5133 5.66155 19.7301 5 22.1 5C24.4687 5 26.684 5.65954 28.5722 6.80584C29.2124 7.1945 29.9291 7.06302 30.2664 6.65346L31.1722 5.55351C28.653 3.63743 25.5093 2.5 22.1 2.5ZM7.09998 17.5C7.09998 13.3452 8.78919 9.58493 11.5183 6.86853L12.3771 7.9194C13.4789 9.2676 15.3625 9.30851 16.663 8.51835C18.2482 7.55527 20.1072 7 22.1 7C24.0925 7 25.9502 7.55375 27.5343 8.51546C28.8311 9.30268 30.707 9.26446 31.8102 7.92487L32.6808 6.86772C35.4104 9.58419 37.1 13.3448 37.1 17.5V18H34.6H33.6V19V30V31H34.6H37.1V33.5C37.1 36.2614 34.8614 38.5 32.1 38.5H25.455C25.0248 37.0543 23.6855 36 22.1 36C20.167 36 18.6 37.567 18.6 39.5C18.6 41.433 20.167 43 22.1 43C23.6855 43 25.0248 41.9457 25.455 40.5H32.1C35.966 40.5 39.1 37.366 39.1 33.5V30.9753C41.6266 30.7245 43.6 28.5927 43.6 26V23C43.6 20.4073 41.6266 18.2755 39.1 18.0247V17.5C39.1 8.11116 31.4888 0.5 22.1 0.5C12.7111 0.5 5.09998 8.11116 5.09998 17.5V18.0247C2.57331 18.2755 0.599976 20.4073 0.599976 23V26C0.599976 28.7614 2.83855 31 5.59998 31H9.59998H10.6V30V19V18H9.59998H7.09998V17.5ZM35.6 20H37.1V29H35.6V20ZM41.6 26C41.6 27.4865 40.5188 28.7205 39.1 28.9585V20.0415C40.5188 20.2795 41.6 21.5135 41.6 23V26ZM5.09998 20.0415C3.68112 20.2795 2.59998 21.5135 2.59998 23V26C2.59998 27.4865 3.68112 28.7205 5.09998 28.9585V20.0415ZM7.09998 29V20H8.59998V29H7.09998ZM20.6 39.5C20.6 38.6716 21.2715 38 22.1 38C22.9284 38 23.6 38.6716 23.6 39.5C23.6 40.3284 22.9284 41 22.1 41C21.2715 41 20.6 40.3284 20.6 39.5Z" fill="#5820F6"/>
</svg>
