<svg width="29" height="38" viewBox="0 0 29 38" fill="none" xmlns="http://www.w3.org/2000/svg">
<path fill-rule="evenodd" clip-rule="evenodd" d="M14.2 2.11938C13.6586 2.11938 13.2 2.56658 13.2 3.14272C13.2 3.71885 13.6586 4.16605 14.2 4.16605C14.7413 4.16605 15.2 3.71885 15.2 3.14272C15.2 2.56658 14.7413 2.11938 14.2 2.11938ZM11.24 2.64865C11.4734 1.22142 12.7012 0.119385 14.2 0.119385C15.6987 0.119385 16.9265 1.22142 17.16 2.64865H20.2C21.3045 2.64865 22.2 3.54408 22.2 4.64865V5.17768H24.2C26.4091 5.17768 28.2 6.96854 28.2 9.17768V33.5277C28.2 35.7368 26.4091 37.5277 24.2 37.5277H4.19995C1.99081 37.5277 0.199951 35.7368 0.199951 33.5277V9.17768C0.199951 6.96854 1.99081 5.17768 4.19995 5.17768H6.19995V4.64865C6.19995 3.54408 7.09538 2.64865 8.19995 2.64865H11.24ZM11.5984 4.64865H8.19995V7.70698L20.2 7.70698V6.17768V4.64865H16.8015C16.2853 5.55275 15.318 6.16605 14.2 6.16605C13.0819 6.16605 12.1146 5.55275 11.5984 4.64865ZM22.2 7.17768V7.70698C22.2 8.81155 21.3045 9.70698 20.2 9.70698H8.19995C7.09538 9.70698 6.19995 8.81155 6.19995 7.70698V7.17768H4.19995C3.09538 7.17768 2.19995 8.07311 2.19995 9.17768V33.5277C2.19995 34.6322 3.09538 35.5277 4.19995 35.5277H24.2C25.3045 35.5277 26.2 34.6322 26.2 33.5277V9.17768C26.2 8.07311 25.3045 7.17768 24.2 7.17768H22.2ZM20.8862 16.5786C21.2879 16.9576 21.3063 17.5905 20.9273 17.9922L13.2909 26.0856C13.102 26.2858 12.8389 26.3993 12.5636 26.3993C12.2883 26.3993 12.0252 26.2858 11.8362 26.0856L7.47261 21.4608C7.09359 21.0591 7.11198 20.4262 7.51368 20.0472C7.91538 19.6682 8.54827 19.6866 8.92729 20.0883L12.5636 23.9422L19.4726 16.6197C19.8516 16.218 20.4845 16.1996 20.8862 16.5786Z" fill="#5820F6"/>
</svg>
