<svg width="40" height="49" viewBox="0 0 40 49" fill="none" xmlns="http://www.w3.org/2000/svg">
<path fill-rule="evenodd" clip-rule="evenodd" d="M21.0071 1.29292L20.3 0.585815L19.5929 1.29292C18.2525 2.63327 15.6093 4.70118 12.367 6.43015C9.11881 8.16222 5.37 9.50003 1.79999 9.50003H0.799988V10.5V31V31.2804L0.945789 31.52C3.33743 35.4491 10.4507 44.2198 19.9356 47.9313L20.3 48.0739L20.6644 47.9313C30.1493 44.2198 37.2625 35.4491 39.6542 31.52L39.8 31.2804V31V10.5V9.50003H38.8C35.23 9.50003 31.4812 8.16222 28.233 6.43015C24.9907 4.70118 22.3474 2.63327 21.0071 1.29292ZM2.79999 30.716V11.47C6.50047 11.2507 10.195 9.85493 13.308 8.19491C16.2285 6.63755 18.7116 4.80754 20.3 3.37612C21.8884 4.80754 24.3714 6.63755 27.292 8.19491C30.405 9.85493 34.0995 11.2507 37.8 11.47V30.716C35.4236 34.5052 28.8545 42.4268 20.3 45.923C11.7455 42.4268 5.17641 34.5052 2.79999 30.716ZM34.3 14.5V27.7874C33.572 29.3603 31.8432 31.6644 29.4142 34.0342C26.909 36.4783 23.7417 38.9112 20.3528 40.6056L21.2472 42.3945C24.8583 40.5889 28.1909 38.0218 30.8108 35.4658C33.4117 32.9284 35.3937 30.32 36.2191 28.3939L36.3 28.2053V28V14.5H34.3ZM5.79999 13.5C11.4769 13.5 17.2593 10.1519 19.6753 8.21913L20.9247 9.78087C18.4771 11.739 12.7694 15.1188 6.79999 15.4702V29H4.79999V14.5V13.5H5.79999ZM19.5498 28.6617L27.0498 20.1616L25.5501 18.8384L18.709 26.5917L15.4585 23.7475L14.1415 25.2526L18.1415 28.7526L18.8909 29.4084L19.5498 28.6617Z" fill="#5820F6"/>
</svg>
