<svg width="46" height="46" viewBox="0 0 46 46" fill="none" xmlns="http://www.w3.org/2000/svg">
<path fill-rule="evenodd" clip-rule="evenodd" d="M18.0212 0.622098C18.4433 0.391854 18.9695 0.494618 19.274 0.866756L23 5.42081L26.7261 0.866756C27.0305 0.494618 27.5568 0.391854 27.9789 0.622098L44.4789 9.6221C44.7474 9.76859 44.9342 10.0299 44.9857 10.3315C45.0373 10.633 44.948 10.9416 44.7433 11.169L40.8484 15.4966L45.24 20.3273C45.4491 20.5574 45.5394 20.8717 45.4841 21.1777C45.4288 21.4837 45.2344 21.7466 44.958 21.889L40.5 24.1855V36V36.6097L39.958 36.889L23.4753 45.38C23.4634 45.3865 23.4514 45.3927 23.4392 45.3986L23.0068 45.6214L22.5721 45.4041C22.5596 45.3981 22.5471 45.3919 22.5349 45.3855L5.5528 36.8944L5.00001 36.618V36V24.1855L0.542057 21.889C0.258191 21.7427 0.0612293 21.4697 0.0119796 21.1542C-0.0372701 20.8387 0.0671142 20.5187 0.292907 20.2929L5.12204 15.4638L1.25672 11.169C1.05207 10.9416 0.962764 10.633 1.01431 10.3315C1.06586 10.0299 1.2526 9.76859 1.52116 9.6221L18.0212 0.622098ZM24 42.86L38.5 35.3903V25.2158L28.458 30.389C28.0557 30.5962 27.5644 30.5075 27.2601 30.1727L24 26.5866V42.86ZM22 26.4142V42.882L7.00001 35.382V25.2158L17.0421 30.389C17.4286 30.5881 17.8996 30.5146 18.2071 30.2071L22 26.4142ZM3.59001 10.7718L6.73763 14.2692L21.4443 6.6777L18.251 2.77488L3.59001 10.7718ZM2.67582 20.7384L6.65498 16.7592L21.2782 24.3076L17.3091 28.2767L2.67582 20.7384ZM28.224 28.2597L24.6601 24.3395L39.3098 16.7774L42.8831 20.708L28.224 28.2597ZM42.41 10.7718L39.2624 14.2692L24.5558 6.6777L27.749 2.77488L42.41 10.7718ZM8.6446 15.5355L23 8.12536L37.3554 15.5355L23 22.9457L8.6446 15.5355Z" fill="#5820F6"/>
</svg>
