<svg viewBox="0 0 26 21" fill="none" xmlns="http://www.w3.org/2000/svg">
  <path transform="translate(-5,-5)" fill-rule="evenodd" clip-rule="evenodd"
    d="M9.5 6.75C7.98122 6.75 6.75 7.98122 6.75 9.5V12.5C6.75 14.0188 7.98122 15.25 9.5 15.25H12.5C14.0188 15.25 15.25 14.0188 15.25 12.5V9.5C15.25 7.98122 14.0188 6.75 12.5 6.75H9.5ZM8.25 9.5C8.25 8.80964 8.80964 8.25 9.5 8.25H12.5C13.1904 8.25 13.75 8.80964 13.75 9.5V12.5C13.75 13.1904 13.1904 13.75 12.5 13.75H9.5C8.80964 13.75 8.25 13.1904 8.25 12.5V9.5ZM9.5 16.75C7.98122 16.75 6.75 17.9812 6.75 19.5V22.5C6.75 24.0188 7.98122 25.25 9.5 25.25H12.5C14.0188 25.25 15.25 24.0188 15.25 22.5V19.5C15.25 17.9812 14.0188 16.75 12.5 16.75H9.5ZM8.25 19.5C8.25 18.8096 8.80964 18.25 9.5 18.25H12.5C13.1904 18.25 13.75 18.8096 13.75 19.5V22.5C13.75 23.1904 13.1904 23.75 12.5 23.75H9.5C8.80964 23.75 8.25 23.1904 8.25 22.5V19.5ZM22 8.75H17V7.25H22V8.75ZM17 11.75H26V10.25H17V11.75ZM24 14.75H17V13.25H24V14.75ZM17 18.75H26V17.25H17V18.75ZM22 21.75H17V20.25H22V21.75ZM17 24.75H24V23.25H17V24.75Z"
    fill="#000"></path>
</svg>
