<svg width="37" height="38" viewBox="0 0 37 38" fill="none" xmlns="http://www.w3.org/2000/svg">
<path d="M4.44444 11.1341C1.48148 14.097 0 17.7655 0 22.0688H6.13757C6.13757 19.2469 7.05467 16.9894 8.81834 15.1552C10.582 13.3916 12.769 12.4745 15.4497 12.4745V6.61908C11.0758 6.61908 7.40741 8.10056 4.44444 11.1341Z" fill="#5820F6"/>
<path d="M10.5819 33.0741C13.5448 36.037 17.2133 37.5185 21.5166 37.5185V31.381C18.6948 31.381 16.4373 30.4638 14.603 28.7002C12.8394 26.9365 11.9223 24.7496 11.9223 22.0688H6.06689C6.13744 26.3721 7.61892 30.0406 10.5819 33.0741Z" fill="#5820F6"/>
<path d="M32.5219 26.866C35.4849 23.903 36.9663 20.2346 36.9663 15.9312H30.8288C30.8288 18.7531 29.9117 21.0106 28.148 22.8448C26.3843 24.6085 24.1974 25.5256 21.5166 25.5256V31.381C25.8905 31.381 29.5589 29.8289 32.5219 26.866Z" fill="#5820F6"/>
<path d="M15.3794 0.481506V6.33688C17.9896 6.33688 20.2471 7.25399 22.0108 9.01766C23.7745 10.8519 24.6916 13.1094 24.6916 15.9312H30.8291C30.8291 11.6279 29.3476 7.95946 26.3847 4.9965C23.4217 1.96299 19.7533 0.481506 15.3794 0.481506Z" fill="#5820F6"/>
</svg>
