<svg width="68" height="68" viewBox="0 0 68 68" fill="none" xmlns="http://www.w3.org/2000/svg">
<path d="M8.17543 19.5576C2.72514 24.9975 0 31.7327 0 39.6335H11.2899C11.2899 34.4527 12.9769 30.3079 16.2211 26.9404C19.4653 23.7023 23.4881 22.0185 28.4193 22.0185V11.2682C20.3737 11.2682 13.6257 13.9882 8.17543 19.5576Z" fill="white"/>
<path d="M19.4663 59.8401C24.9166 65.28 31.6646 68 39.5805 68V56.7316C34.3897 56.7316 30.2371 55.0478 26.8631 51.8097C23.6189 48.5717 21.9319 44.5565 21.9319 39.6346H11.1611C11.2909 47.5355 14.016 54.2706 19.4663 59.8401Z" fill="white"/>
<path d="M59.823 48.4403C65.2733 43.0004 67.9984 36.2652 67.9984 28.3644H56.7086C56.7086 33.5453 55.0216 37.69 51.7774 41.0575C48.5331 44.2956 44.5103 45.9794 39.5791 45.9794V56.7297C47.6248 56.7297 54.3727 53.8802 59.823 48.4403Z" fill="white"/>
<path d="M28.2891 0V10.7503C33.0905 10.7503 37.2431 12.4341 40.4873 15.6722C43.7315 19.0398 45.4185 23.1845 45.4185 28.3653H56.7084C56.7084 20.4645 53.9833 13.7293 48.533 8.28942C43.0827 2.71996 36.3347 0 28.2891 0Z" fill="white"/>
</svg>

