<?xml version="1.0" encoding="utf-8"?>
<!-- Generator: Adobe Illustrator 27.3.1, SVG Export Plug-In . SVG Version: 6.00 Build 0)  -->
<svg version="1.1" id="Слой_1" xmlns="http://www.w3.org/2000/svg" xmlns:xlink="http://www.w3.org/1999/xlink" x="0px" y="0px"
	 viewBox="0 0 60 60" style="enable-background:new 0 0 60 60;" xml:space="preserve">
<style type="text/css">
	.st0{fill:#FFCB01;}
	.st1{fill:#D80613;}
</style>
<circle class="st0" cx="30" cy="30" r="30"/>
<g>
	<path class="st1" d="M12.09,26.09l-1.77,2.4h9.62c0.49,0,0.48,0.18,0.24,0.51c-0.24,0.33-0.65,0.89-0.89,1.23
		c-0.12,0.17-0.35,0.48,0.4,0.48h3.94l1.17-1.58c0.72-0.98,0.06-3.02-2.52-3.02L12.09,26.09L12.09,26.09z"/>
	<path class="st1" d="M9.61,33.91l3.55-4.82h4.4c0.49,0,0.48,0.18,0.24,0.51l-0.9,1.22c-0.12,0.17-0.35,0.48,0.4,0.48h5.89
		c-0.49,0.67-2.08,2.61-4.94,2.61H9.61z M29.92,31.29l-1.92,2.61h-5.07l1.92-2.61H29.92z M37.69,30.7H25.28l3.39-4.61h5.07
		l-1.94,2.64h2.26l1.95-2.64h5.07L37.69,30.7z M37.25,31.29l-1.92,2.61h-5.07l1.92-2.61H37.25z M2.37,32.32h7.47l-0.41,0.55H2.37
		V32.32z M2.37,31.29h8.23l-0.41,0.55H2.37V31.29z M2.37,33.36h6.71l-0.41,0.55H2.37V33.36z M57.63,32.88h-7.45l0.41-0.55h7.04
		V32.88z M57.63,33.91h-8.2l0.41-0.55h7.8V33.91z M51.35,31.29h6.28v0.56h-6.69L51.35,31.29z M48.1,26.09l-3.39,4.61h-5.37l3.4-4.61
		H48.1z M38.9,31.29c0,0-0.37,0.51-0.55,0.75c-0.64,0.86-0.07,1.86,2,1.86h8.14l1.92-2.61L38.9,31.29L38.9,31.29z"/>
</g>
</svg>
