<svg width="48" height="56" viewBox="0 0 48 56" fill="none" xmlns="http://www.w3.org/2000/svg">
  <g filter="url(#filter0_d_404_7458)">
    <path
      d="M38 20.025C38 30.3768 24 42 24 42C24 42 10 30.3768 10 20.025C10 12.2792 16.268 6 24 6C31.732 6 38 12.2792 38 20.025Z"
      fill="#5820F6"></path>
    <path fill-rule="evenodd" clip-rule="evenodd"
      d="M28 13H17V27H27H28H31H32V26V18V17H31H28V13ZM28 18V19.5H30V21.5H28V23H30V25H28V26H31V18H28ZM21.5 16H19.5V18H21.5V16ZM23.5 16H25.5V18H23.5V16ZM21.5 19.5H19.5V21.5H21.5V19.5ZM23.5 19.5H25.5V21.5H23.5V19.5ZM21.5 23H19.5V25H21.5V23ZM23.5 23H25.5V25H23.5V23Z"
      fill="white"></path>
  </g>
  <defs>
    <filter id="filter0_d_404_7458" x="0" y="0" width="48" height="56" filterUnits="userSpaceOnUse"
      color-interpolation-filters="sRGB">
      <feFlood flood-opacity="0" result="BackgroundImageFix"></feFlood>
      <feColorMatrix in="SourceAlpha" type="matrix" values="0 0 0 0 0 0 0 0 0 0 0 0 0 0 0 0 0 0 127 0"
        result="hardAlpha"></feColorMatrix>
      <feOffset dy="4"></feOffset>
      <feGaussianBlur stdDeviation="5"></feGaussianBlur>
      <feComposite in2="hardAlpha" operator="out"></feComposite>
      <feColorMatrix type="matrix" values="0 0 0 0 0 0 0 0 0 0 0 0 0 0 0 0 0 0 0.4 0"></feColorMatrix>
      <feBlend mode="normal" in2="BackgroundImageFix" result="effect1_dropShadow_404_7458"></feBlend>
      <feBlend mode="normal" in="SourceGraphic" in2="effect1_dropShadow_404_7458" result="shape"></feBlend>
    </filter>
  </defs>
</svg>
